<svg width="1600" height="900" viewBox="0 0 1600 900" fill="none" xmlns="http://www.w3.org/2000/svg">
  <defs>
    <linearGradient id="bg1" x1="134" y1="86" x2="1423" y2="854" gradientUnits="userSpaceOnUse">
      <stop stop-color="#071B35"/>
      <stop offset="0.5" stop-color="#0D2E58"/>
      <stop offset="1" stop-color="#144B75"/>
    </linearGradient>
    <linearGradient id="glass1" x1="321" y1="312" x2="1120" y2="801" gradientUnits="userSpaceOnUse">
      <stop stop-color="#2A9BEF"/>
      <stop offset="1" stop-color="#8FD6FF"/>
    </linearGradient>
  </defs>
  <rect width="1600" height="900" fill="url(#bg1)"/>
  <rect x="0" y="700" width="1600" height="200" fill="#091522"/>
  <rect x="250" y="265" width="420" height="360" rx="8" fill="#132B49"/>
  <rect x="300" y="310" width="280" height="230" fill="url(#glass1)" fill-opacity="0.9"/>
  <rect x="345" y="215" width="350" height="435" stroke="#C9A86A" stroke-width="22"/>
  <rect x="760" y="255" width="620" height="385" rx="8" fill="#112745"/>
  <rect x="812" y="306" width="485" height="220" fill="url(#glass1)" fill-opacity="0.88"/>
  <rect x="785" y="215" width="560" height="455" stroke="#C9A86A" stroke-width="22"/>
  <rect x="60" y="470" width="48" height="140" rx="8" fill="#203D61"/>
  <rect x="73" y="443" width="22" height="25" rx="4" fill="#F6D496"/>
  <rect x="1210" y="605" width="260" height="24" rx="12" fill="#1A324D"/>
  <circle cx="180" cy="760" r="36" fill="#182B44"/>
  <circle cx="310" cy="760" r="36" fill="#1C3552"/>
  <circle cx="445" cy="760" r="36" fill="#203B5D"/>
  <circle cx="1005" cy="760" r="36" fill="#182B44"/>
  <circle cx="1140" cy="760" r="36" fill="#1C3552"/>
  <circle cx="1275" cy="760" r="36" fill="#203B5D"/>
  <path d="M0 700H1600" stroke="#31557D" stroke-width="4"/>
  <path d="M100 650L1550 650" stroke="#18304B" stroke-width="3" stroke-dasharray="14 18"/>
</svg>
