<svg width="720" height="1520" viewBox="0 0 720 1520" fill="none" xmlns="http://www.w3.org/2000/svg">
  <defs>
    <linearGradient id="bg" x1="140" y1="116" x2="618" y2="1458" gradientUnits="userSpaceOnUse">
      <stop stop-color="#FFFFFF"/>
      <stop offset="1" stop-color="#EEF2F8"/>
    </linearGradient>
    <linearGradient id="accent" x1="192" y1="287" x2="517" y2="777" gradientUnits="userSpaceOnUse">
      <stop stop-color="#6674FF"/>
      <stop offset="1" stop-color="#4A53E7"/>
    </linearGradient>
  </defs>
  <rect width="720" height="1520" fill="url(#bg)"/>
  <text x="104" y="92" fill="#0E1220" font-family="Arial, sans-serif" font-size="34" font-weight="700">17:46</text>
  <text x="546" y="92" fill="#0E1220" font-family="Arial, sans-serif" font-size="28" font-weight="600">4G</text>
  <rect x="602" y="63" width="56" height="24" rx="8" stroke="#0E1220" stroke-width="6"/>
  <rect x="609" y="70" width="35" height="10" rx="4" fill="#0E1220"/>
  <text x="558" y="160" fill="#6674FF" font-family="Arial, sans-serif" font-size="28" font-weight="600">Passer</text>
  <circle cx="366" cy="366" r="12" fill="#FFB49A"/>
  <circle cx="504" cy="332" r="11" fill="#FFB49A"/>
  <path d="M172 710H534L478 468H228L172 710Z" fill="#4C5AF0" fill-opacity="0.16"/>
  <path d="M220 474H478L430 650H268L220 474Z" fill="#E7EAF9"/>
  <path d="M236 492H462L419 633H279L236 492Z" fill="#D8DCFB"/>
  <path d="M198 702H510" stroke="#4C5AF0" stroke-width="8" stroke-linecap="round"/>
  <path d="M196 746H528" stroke="#0F1730" stroke-opacity="0.12" stroke-width="10" stroke-linecap="round"/>
  <path d="M190 448L526 448" stroke="#4C5AF0" stroke-width="10" stroke-linecap="round"/>
  <path d="M210 404L246 368" stroke="#4C5AF0" stroke-width="14" stroke-linecap="round"/>
  <path d="M448 404L484 368" stroke="#4C5AF0" stroke-width="14" stroke-linecap="round"/>
  <path d="M260 388L312 336L364 388" stroke="#4C5AF0" stroke-width="14" stroke-linecap="round" stroke-linejoin="round"/>
  <path d="M360 388L412 336L464 388" stroke="#4C5AF0" stroke-width="14" stroke-linecap="round" stroke-linejoin="round"/>
  <rect x="244" y="384" width="34" height="142" rx="10" fill="url(#accent)"/>
  <rect x="344" y="362" width="34" height="164" rx="10" fill="url(#accent)"/>
  <rect x="444" y="384" width="34" height="142" rx="10" fill="url(#accent)"/>
  <path d="M142 402C179 402 210 372 210 335C210 298 179 268 142 268C105 268 75 298 75 335C75 372 105 402 142 402Z" fill="url(#accent)"/>
  <path d="M142 294C154 294 165 304 165 317C165 331 154 341 142 341C129 341 119 331 119 317C119 304 129 294 142 294Z" fill="#EEF2F8"/>
  <path d="M104 375L142 351L180 375V395H104V375Z" fill="#EEF2F8"/>
  <rect x="182" y="540" width="98" height="80" rx="18" fill="url(#accent)"/>
  <rect x="290" y="572" width="108" height="48" rx="14" fill="#FFFFFF"/>
  <rect x="398" y="534" width="112" height="86" rx="18" fill="url(#accent)" fill-opacity="0.86"/>
  <circle cx="124" cy="748" r="9" fill="#4C5AF0"/>
  <circle cx="186" cy="748" r="9" fill="#4C5AF0"/>
  <circle cx="248" cy="748" r="9" fill="#4C5AF0"/>
  <circle cx="474" cy="748" r="9" fill="#4C5AF0"/>
  <circle cx="536" cy="748" r="9" fill="#4C5AF0"/>
  <circle cx="598" cy="748" r="9" fill="#4C5AF0"/>
  <text x="98" y="1048" fill="#111111" font-family="Arial, sans-serif" font-size="72" font-weight="700">Trouvez une place</text>
  <text x="97" y="1138" fill="#111111" font-family="Arial, sans-serif" font-size="72" font-weight="700">de parking autour de vous.</text>
  <text x="154" y="1272" fill="#4A4A4A" font-family="Arial, sans-serif" font-size="40" font-weight="400">La solution ideale pour un stationnement</text>
  <text x="190" y="1332" fill="#4A4A4A" font-family="Arial, sans-serif" font-size="40" font-weight="400">simple, rapide et securise.</text>
</svg>
